# xmcd
#
# Track frame offsets:
#	150
#	15809
#	37160
#	54912
#	75322
#	90015
#	108208
#	128394
#	145954
#	161703
#
# Disc length: 2391 seconds
#
# Revision: 0
# Processed by: cddbd v1.5.2PL0 Copyright (c) Steve Scherf et al.
# Submitted via: EasyCDDAExtractor 15.2.1.1
#
DISCID=6209550a
DTITLE=闪亮三姊妹 - 舞台
DYEAR=2008
DGENRE=
TTITLE0=打拼
TTITLE1=按怎
TTITLE2=闪亮舞台
TTITLE3=犹原在等你
TTITLE4=我爱你一生一世
TTITLE5=爱你每一天
TTITLE6=自由自在
TTITLE7=作你的情人
TTITLE8=爱你千万年
TTITLE9=失落的爱
EXTD=
EXTT0=
EXTT1=
EXTT2=
EXTT3=
EXTT4=
EXTT5=
EXTT6=
EXTT7=
EXTT8=
EXTT9=
PLAYORDER=
